<svg width="41" height="34" viewBox="0 0 41 34" fill="none" xmlns="http://www.w3.org/2000/svg">
<path d="M0 12.8732V25.6071H9.65094H19.3019V28.8775V32.1478H12.3962H5.49057V33.0739V34H20.2075H34.9245V33.0739V32.1478H28.0189H21.1132V28.8775V25.6071L30.9509 25.5956L40.783 25.5782L40.8 12.8558L40.8113 0.139163H20.4057H0V12.8732ZM38.9887 12.8558L38.9717 23.726L20.4113 23.7433C5.59811 23.7549 1.83962 23.7433 1.8 23.6855C1.77736 23.645 1.75472 18.7482 1.75472 12.7979V1.99138H20.3774H39L38.9887 12.8558Z" fill="white"/>
<path d="M9.12453 5.77105L8.49057 6.41933L11.3774 9.3713L14.2642 12.3233L11.3774 15.2752C9.79246 16.9017 8.49057 18.2562 8.49057 18.2851C8.49057 18.3198 8.76227 18.6266 9.10189 18.9681L9.70755 19.5874L13.2623 15.9525L16.8113 12.3233L13.2849 8.71724L9.76415 5.11699L9.12453 5.77105Z" fill="white"/>
<path d="M16.3019 17.9378V18.835H22.4434H28.5849V17.9378V17.0406H22.4434H16.3019V17.9378Z" fill="#9AD3FF"/>
</svg>
